<svg width="197" height="182" viewBox="0 0 197 182" fill="none" xmlns="http://www.w3.org/2000/svg">
<path d="M197 94.4886C197 56.6356 166.117 26.0544 128.05 26.0544H102.703C102.555 26.0535 102.407 26.0359 102.263 26.002C104.104 23.2775 105.081 20.0635 105.067 16.7778C105.068 14.5693 104.631 12.3824 103.783 10.3426C102.934 8.3028 101.69 6.45028 100.122 4.89138C98.554 3.33248 96.6928 2.0979 94.6452 1.25853C92.5976 0.41915 90.404 -0.00849914 88.1904 0.000127971C85.8998 -0.0022006 83.6327 0.460685 81.5273 1.36059C79.4218 2.2605 77.522 3.57858 75.9435 5.23457C69.9685 3.75628 63.7139 3.82618 57.7736 5.43765L10.8876 18.1471H10.8613C7.75124 18.9937 5.00508 20.8341 3.04341 23.3863C1.08174 25.9385 0.0127094 29.0619 4.79726e-05 32.2781V35.5995C-0.012072 43.6411 2.27256 51.5197 6.58641 58.3127V69.5087C6.58641 70.8845 7.76841 72.0637 9.14741 72.0637H17.1587C17.9467 72.0637 18.6625 71.6837 19.1353 71.1072C21.3767 72.5922 23.7539 73.8609 26.2667 74.9135V74.9266H21.5453C16.9223 74.9266 13.1334 78.7067 13.1334 83.3253C13.1334 87.9374 16.9223 91.7174 21.5453 91.7174H27.7442C31.2245 103.575 40.5558 113.258 52.5334 116.723V120.89L49.841 119.92C49.8013 119.916 49.7631 119.903 49.7294 119.881C49.6988 119.859 49.6637 119.848 49.6243 119.848L49.4142 119.776C45.6641 118.425 41.691 117.796 37.7058 117.922C20.7244 118.492 6.87535 132.374 6.59298 149.395C6.52243 153.648 7.30062 157.873 8.88225 161.823C10.4639 165.773 12.8173 169.37 15.8057 172.405C18.794 175.439 22.3574 177.85 26.2886 179.497C30.2198 181.145 34.4401 181.995 38.704 182H130.979C148.774 182 163.812 170.385 168.895 154.321C185.968 139.777 197 117.084 197 94.4886ZM84.7035 15.4283C84.9854 14.7376 85.4682 14.1469 86.0897 13.7324C86.7112 13.3179 87.4428 13.0985 88.1904 13.1026C90.3114 13.1026 91.9334 14.7666 91.9334 16.7778C91.9291 17.4229 91.7514 18.055 91.4188 18.6081C91.0861 19.1613 90.6107 19.6152 90.0422 19.9224L83.5412 23.5453L90.712 33.2542L90.7776 33.3328C93.6276 36.9491 98.001 39.1634 102.703 39.1634H128.05C158.933 39.1634 183.867 63.9402 183.867 94.4886C183.867 115.413 172.204 136.849 155.039 148.405L153.791 149.244C144.357 151.243 134.55 150.556 125.489 147.259L65.6667 125.64V111.725C73.1264 111.116 79.5289 108.417 84.2569 103.791C89.6679 98.4849 92.5506 90.9706 92.5506 82.0937C92.5506 81.2249 92.2047 80.3917 91.589 79.7774C90.9732 79.1631 90.1381 78.818 89.2673 78.818C88.3965 78.818 87.5614 79.1631 86.9456 79.7774C86.3299 80.3917 85.984 81.2249 85.984 82.0937C85.984 89.5293 83.6003 95.2551 79.6537 99.1138C75.9304 102.769 70.526 105.036 63.6442 105.278L59.8224 104.859C49.5784 103.732 41.1271 95.2289 39.6364 84.7469H48.0024C54.2998 84.7469 59.8224 81.4516 62.9481 76.5382L62.9678 76.4989C63.4012 75.8088 63.7843 75.0882 64.117 74.337L66.678 68.585C68.0044 66.7376 68.648 64.3922 68.648 61.6473C68.648 55.5939 64.1104 50.7919 59.3758 47.7324C54.5165 44.6009 48.3832 42.5832 43.2744 42.5832H34.5407C32.7408 42.582 30.982 42.0462 29.4885 41.0439C27.9951 40.0417 26.8346 38.6184 26.1551 36.9556L22.7141 28.5111L61.2145 18.0815C66.1299 16.7406 71.3535 17.0773 76.0552 19.038L82.2278 21.6192L84.7035 15.4283ZM62.0747 61.6473C62.0747 63.7109 61.5297 64.6412 61.0241 65.1391H42.8804C29.8127 65.1391 18.715 56.7535 14.7159 45.1316C16.9617 43.7558 18.8201 41.7905 20.0546 39.3731L20.0743 39.4386C21.2481 42.3051 23.2507 44.7581 25.8271 46.4849C28.4035 48.2117 31.4369 49.134 34.5407 49.1344H43.2744C46.8992 49.1344 51.811 50.6543 55.8101 53.2355C59.934 55.8953 62.0747 58.9875 62.0747 61.6473Z" fill="#A86F5C"/>
</svg>
